<svg xmlns="http://www.w3.org/2000/svg" width="377.343" height="377.343"><path d="M301.689 53.505H75.651c-10.876 0-19.725 8.843-19.725 19.713v230.904c0 10.878 8.843 19.727 19.725 19.727H301.69c10.873 0 19.722-8.843 19.722-19.727V73.218c-.006-10.87-8.85-19.713-19.723-19.713zm-102.523 94.904a3.062 3.062 0 01-3.573 1.009l-38.281-15.124v88.612c0 1.686-1.365 3.076-3.064 3.065h-30.679c-1.691 0-3.059-1.38-3.07-3.075l.011-88.598-38.282 15.114a3.076 3.076 0 01-3.572-1.01 3.054 3.054 0 01.01-3.721l57.804-75.185a3.089 3.089 0 012.438-1.193 3.033 3.033 0 012.433 1.193l57.804 75.191c.432.561.643 1.229.637 1.871a3.101 3.101 0 01-.616 1.851zM338.677 0H38.662C19.094 0 3.226 15.869 3.226 35.434v306.462c0 19.581 15.869 35.447 35.437 35.447h300.02c19.568 0 35.436-15.866 35.436-35.447V35.434C374.117 15.869 358.25 0 338.677 0zm-3.296 304.122c0 18.572-15.113 33.691-33.691 33.691H75.651c-18.576 0-33.695-15.114-33.695-33.691V73.218c0-18.569 15.114-33.688 33.695-33.688H301.69c18.572 0 33.691 15.114 33.691 33.688v230.904z"/></svg>