<svg xmlns="http://www.w3.org/2000/svg" width="377.343" height="377.343"><path d="M301.689 53.505H75.651c-10.876 0-19.725 8.843-19.725 19.718v230.911c0 10.866 8.843 19.715 19.725 19.715H301.69c10.873 0 19.722-8.843 19.722-19.715V73.223c-.006-10.875-8.85-19.718-19.723-19.718zm-112.382 58.846h-38.696v-12.344h-37.637v20.413l61.429 33.24c9.936 5.373 14.904 12.596 14.904 21.668v20.992c0 7.578-3.861 14.166-11.565 19.77-7.716 5.604-16.58 8.404-26.605 8.404h-38.163c-10.114 0-18.958-2.779-26.538-8.361-7.588-5.562-11.369-12.136-11.369-19.72V183.97h38.422v12.344h37.778v-21.29l-61.048-32.257c-10.104-5.374-15.157-12.665-15.157-21.863v-20.99c0-7.516 3.809-14.077 11.438-19.68 7.625-5.603 16.489-8.405 26.593-8.405h38.04c10.025 0 18.889 2.818 26.605 8.457 7.705 5.637 11.565 12.214 11.565 19.727v12.339h.004zM338.677 0H38.662C19.094 0 3.226 15.869 3.226 35.439v306.464c0 19.573 15.869 35.439 35.437 35.439h300.02c19.568 0 35.436-15.866 35.436-35.439V35.439C374.117 15.869 358.25 0 338.677 0zm-3.296 304.122c0 18.572-15.113 33.691-33.691 33.691H75.651c-18.576 0-33.695-15.114-33.695-33.691V73.223c0-18.569 15.114-33.688 33.695-33.688H301.69c18.572 0 33.691 15.114 33.691 33.688v230.899z"/></svg>